<?xml version="1.0" standalone="no"?>
<!DOCTYPE svg PUBLIC "-//W3C//DTD SVG 20010904//EN"
 "http://www.w3.org/TR/2001/REC-SVG-20010904/DTD/svg10.dtd">
<svg version="1.0" xmlns="http://www.w3.org/2000/svg"
 width="500.000000pt" height="500.000000pt" viewBox="0 0 500.000000 500.000000"
 preserveAspectRatio="xMidYMid meet">
<metadata>
Created by potrace 1.11, written by Peter Selinger 2001-2013
</metadata>
<g transform="translate(0.000000,500.000000) scale(0.100000,-0.100000)"
fill="#000000" stroke="none">
<path d="M0 2500 l0 -2500 2500 0 2500 0 0 2500 0 2500 -2500 0 -2500 0 0
-2500z m4000 698 c-36 -34 -127 -122 -202 -195 l-137 -133 -598 0 c-509 0
-608 -2 -658 -16 -118 -30 -216 -108 -268 -213 -29 -59 -32 -74 -32 -156 0
-80 3 -97 31 -155 37 -79 95 -140 166 -177 46 -24 67 -28 166 -31 l112 -4 0
-189 0 -189 -102 0 c-123 0 -209 13 -301 45 -105 36 -173 82 -273 181 -78 77
-99 105 -138 186 -56 115 -76 201 -76 333 0 205 69 364 224 518 97 96 218 170
346 212 122 40 185 43 1010 44 l795 1 -65 -62z m-2402 -550 l-3 -603 -24 -60
c-33 -82 -115 -164 -196 -195 -49 -19 -88 -24 -215 -30 -85 -4 -158 -5 -162
-3 -5 2 -8 85 -8 184 l0 179 65 0 c111 0 105 -20 105 378 l-1 337 213 207
c117 114 217 207 221 208 4 0 7 -271 5 -602z m2067 -153 l0 -180 -230 -5 -230
-5 -3 -282 -2 -283 -215 0 -215 0 0 470 0 470 448 -2 447 -3 0 -180z"/>
</g>
</svg>
