<?xml version="1.0" standalone="no"?>
<!DOCTYPE svg PUBLIC "-//W3C//DTD SVG 20010904//EN"
 "http://www.w3.org/TR/2001/REC-SVG-20010904/DTD/svg10.dtd">
<svg version="1.0" xmlns="http://www.w3.org/2000/svg"
 width="200.000000pt" height="200.000000pt" viewBox="0 0 200.000000 200.000000"
 preserveAspectRatio="xMidYMid meet">
<metadata>
Created by potrace 1.11, written by Peter Selinger 2001-2013
</metadata>
<g transform="translate(0.000000,200.000000) scale(0.100000,-0.100000)"
fill="#000000" stroke="none">
<path d="M827 1984 c-272 -49 -502 -201 -660 -436 -80 -118 -129 -244 -155
-398 -9 -47 -7 -256 1 -304 47 -257 166 -464 357 -621 113 -92 266 -167 410
-202 104 -24 336 -24 440 0 398 96 698 411 764 806 67 390 -107 789 -436 1003
-81 53 -177 100 -241 119 -146 44 -345 57 -480 33z"/>
</g>
</svg>
